#!OML:ASF X:\für Bonn\!DataBase\2005_08_10_Bjorn_Final\c3d\bjorn.ASF
:FULLY-SPECIFIED
:DEGREES
233
root 5.06024 18.2477 21.5672 -333.696 -247.699 -332.85
lowerback 2.2174 3.21197 7.35439
upperback 7.4744 4.43129 2.44427
thorax 6.95745 2.71297 -1.32154
lowerneck -3.17272 2.83707 3.59105
upperneck 4.56163 4.01532 -6.8165
head 2.25372 1.92048 -2.72034
rclavicle -1.05455e-013 1.73937e-014
rhumerus -29.3267 8.27109 -99.1643
rradius 92.4861
rwrist 0.929572
rhand -26.8681 28.9545
rfingers 7.12502
rthumb -0.29266 -1.02502
lclavicle -1.05455e-013 1.73937e-014
lhumerus -56.5376 -15.5122 101.566
lradius 82.9172
lwrist -8.67672
lhand -43.763 -21.5464
lfingers 7.12502
lthumb -16.5931 7.76421
rfemur 8.71747 -6.3749 17.8944
rtibia 29.0414
rfoot -15.0999 17.2968
rtoes -27.7476
lfemur -35.659 7.10416 -23.883
ltibia 68.179
lfoot -17.0222 2.85883
ltoes -14.5892
234
root 5.35706 18.3452 21.4907 -334.701 -247.264 -334.139
lowerback 1.76009 3.49271 7.00989
upperback 7.2751 4.76573 2.23969
thorax 7.01828 2.84959 -1.30685
lowerneck -3.18948 2.59974 3.64022
upperneck 5.2978 3.72301 -6.56179
head 2.47746 1.77624 -2.65686
rclavicle -1.04809e-013 4.46272e-014
rhumerus -29.3901 8.88446 -99.7229
rradius 93.0447
rwrist 0.847254
rhand -26.9688 29.5751
rfingers 7.12502
rthumb -0.389982 -0.404317
lclavicle -1.04809e-013 4.46272e-014
lhumerus -57.0983 -15.9218 101.095
lradius 82.8245
lwrist -8.59854
lhand -43.9073 -21.046
lfingers 7.12502
lthumb -16.732 8.25298
rfemur 10.1497 -6.63141 17.5503
rtibia 27.3359
rfoot -11.7762 17.1845
rtoes -27.6079
lfemur -35.951 7.35122 -24.8298
ltibia 64.9475
lfoot -16.0353 1.32782
ltoes -13.4896
235
root 5.65566 18.4399 21.4111 -335.511 -246.798 -335.291
lowerback 1.2153 3.75737 6.69915
upperback 7.05228 5.0733 2.03089
thorax 7.10527 2.97409 -1.30741
lowerneck -3.03118 2.37618 3.73634
upperneck 5.87261 3.44385 -6.34616
head 2.6201 1.64543 -2.61591
rclavicle -3.07122e-014 -1.05356e-014
rhumerus -29.5487 9.49525 -100.277
rradius 93.5285
rwrist 0.849086
rhand -27.1243 30.1582
rfingers 7.12502
rthumb -0.54017 0.179144
lclavicle -3.07122e-014 -1.05356e-014
lhumerus -57.5558 -16.3576 100.629
lradius 82.5821
lwrist -8.55756
lhand -44.1582 -20.8444
lfingers 7.12502
lthumb -16.9735 8.43397
rfemur 11.3691 -6.82338 17.2114
rtibia 25.8044
rfoot -8.06172 17.1001
rtoes -26.1048
lfemur -36.1374 7.43733 -25.6632
ltibia 61.6296
lfoot -14.9181 -0.407544
ltoes -10.7188
236
root 5.95593 18.5285 21.3309 -336.062 -246.286 -336.136
lowerback 0.692653 4.00783 6.50936
upperback 6.81975 5.36575 1.82043
thorax 7.18092 3.09856 -1.37486
lowerneck -2.73346 2.15325 3.88414
upperneck 6.30236 3.15945 -6.14307
head 2.69038 1.51784 -2.58866
rclavicle -2.77305e-014 1.51076e-014
rhumerus -29.8322 10.104 -100.864
rradius 94.0234
rwrist 0.817056
rhand -27.1659 30.5523
rfingers 7.12502
rthumb -0.580302 0.573385
lclavicle -2.77305e-014 1.51076e-014
lhumerus -57.9957 -16.8413 100.124
lradius 82.2531
lwrist -8.44702
lhand -44.3225 -21.0778
lfingers 7.12502
lthumb -17.1317 8.18687
rfemur 12.3612 -6.92887 16.9845
rtibia 24.6452
rfoot -4.25662 16.7512
rtoes -24.1842
lfemur -36.128 7.64508 -26.3971
ltibia 58.3173
lfoot -13.7567 -1.94159
ltoes -8.60056
237
root 6.25725 18.6151 21.249 -336.314 -245.692 -336.556
lowerback 0.260787 4.24791 6.49529
upperback 6.62634 5.65197 1.62223
thorax 7.26537 3.23357 -1.52671
lowerneck -2.44461 1.92781 4.19457
upperneck 6.63129 2.86036 -5.98517
head 2.73309 1.38666 -2.60637
rclavicle -9.26337e-014 4.77083e-014
rhumerus -30.1004 10.6676 -101.427
rradius 94.4891
rwrist 0.776371
rhand -27.1686 30.6301
rfingers 7.12502
rthumb -0.582925 0.651152
lclavicle -9.26337e-014 4.77083e-014
lhumerus -58.4079 -17.4128 99.5858
lradius 81.8781
lwrist -8.33372
lhand -44.5948 -21.705
lfingers 7.12502
lthumb -17.3937 7.53673
rfemur 13.2672 -6.93871 16.9561
rtibia 23.7032
rfoot -0.436369 16.0524
rtoes -21.9621
lfemur -35.9108 7.96105 -26.9293
ltibia 55.0202
lfoot -12.5472 -3.27377
ltoes -6.30768
238
root 6.55661 18.6692 21.1746 -336.534 -245.064 -336.828
lowerback -0.0251258 4.47106 6.52248
upperback 6.41432 5.92792 1.43437
thorax 7.25001 3.36443 -1.70261
lowerneck -1.92492 1.69359 4.58032
upperneck 6.76142 2.55044 -5.87648
head 2.66772 1.25585 -2.65318
rclavicle -9.61124e-014 2.70347e-014
rhumerus -30.5338 11.2533 -101.938
rradius 94.9381
rwrist 0.825869
rhand -27.2936 30.5036
rfingers 7.12502
rthumb -0.703652 0.525043
lclavicle -9.61124e-014 2.70347e-014
lhumerus -58.9258 -17.9146 99.1036
lradius 81.4955
lwrist -8.22381
lhand -44.902 -22.8043
lfingers 7.12502
lthumb -17.6893 6.41106
rfemur 14.1128 -6.88587 17
rtibia 23.0208
rfoot 3.17811 15.1749
rtoes -20.2469
lfemur -35.6544 8.42336 -27.4282
ltibia 51.8802
lfoot -11.3905 -4.25858
ltoes -4.55301
239
root 6.86155 18.7493 21.0912 -336.85 -244.413 -337.186
lowerback -0.315994 4.62764 6.42594
upperback 6.20479 6.1164 1.30741
thorax 7.21191 3.4429 -1.75363
lowerneck -1.18936 1.5073 4.8125
upperneck 6.67175 2.31301 -5.74235
head 2.48886 1.16124 -2.65731
rclavicle -1.09332e-014 1.47101e-014
rhumerus -31.08 11.9797 -102.343
rradius 95.3896
rwrist 0.973095
rhand -27.4188 30.2328
rfingers 7.12502
rthumb -0.824604 0.254686
lclavicle -1.09332e-014 1.47101e-014
lhumerus -59.4917 -18.1601 98.7507
lradius 81.1707
lwrist -8.07902
lhand -45.2397 -23.922
lfingers 7.12502
lthumb -18.0143 5.26376
rfemur 14.8867 -6.83996 16.9976
rtibia 22.4729
rfoot 6.60474 14.3129
rtoes -19.9035
lfemur -35.2166 8.99668 -27.9928
ltibia 48.7904
lfoot -10.3361 -4.8197
ltoes -4.83404
240
root 7.16739 18.8286 21.006 -337.023 -243.76 -337.403
lowerback -0.598939 4.7643 6.30603
upperback 5.99234 6.27871 1.22768
thorax 7.15551 3.50572 -1.74523
lowerneck -0.514499 1.34613 4.9137
upperneck 6.54014 2.10591 -5.50432
head 2.30561 1.07852 -2.59947
rclavicle 8.64713e-015 -1.07344e-014
rhumerus -31.6574 12.6744 -102.716
rradius 95.7845
rwrist 1.33994
rhand -27.3721 30.1642
rfingers 7.12502
rthumb -0.779474 0.185893
lclavicle 8.64713e-015 -1.07344e-014
lhumerus -60.0155 -18.3358 98.4645
lradius 80.8992
lwrist -7.95064
lhand -45.7013 -24.7399
lfingers 7.12502
lthumb -18.4584 4.40437
rfemur 15.4922 -6.67292 17.0922
rtibia 22.1557
rfoot 9.70685 13.7707
rtoes -21.8926
lfemur -34.8359 9.78136 -28.558
ltibia 45.9229
lfoot -9.35005 -5.08111
ltoes -7.26716
241
root 7.4717 18.8987 20.9208 -337.042 -243.054 -337.48
lowerback -0.911713 4.86001 6.2113
upperback 5.79512 6.38238 1.18787
thorax 7.12593 3.54129 -1.70954
lowerneck 0.175716 1.21805 5.00013
upperneck 6.24376 1.93914 -5.28025
head 2.06983 1.01264 -2.54109
rclavicle -3.90612e-014 0
rhumerus -32.2188 13.3907 -103.04
rradius 96.2058
rwrist 1.78235
rhand -27.1173 30.0857
rfingers 7.12502
rthumb -0.533379 0.106578
lclavicle -3.90612e-014 0
lhumerus -60.4658 -18.4603 98.2209
lradius 80.7572
lwrist -7.80605
lhand -46.1769 -25.1486
lfingers 7.12502
lthumb -18.9158 3.95165
rfemur 16.0005 -6.44796 17.3151
rtibia 21.9425
rfoot 12.6368 13.4879
rtoes -24.0741
lfemur -34.5076 10.7437 -29.1044
ltibia 43.2497
lfoot -8.50334 -5.30657
ltoes -10.1785
242
root 7.77576 18.9588 20.8342 -336.88 -242.258 -337.374
lowerback -1.23632 4.92827 6.233
upperback 5.57548 6.44365 1.15068
thorax 7.08975 3.56161 -1.73775
lowerneck 0.954102 1.11399 5.06006
upperneck 5.84449 1.80218 -4.94776
head 1.78708 0.96163 -2.44042
rclavicle -1.92821e-014 1.82882e-014
rhumerus -32.8757 13.99 -103.407
rradius 96.6376
rwrist 2.32434
rhand -26.9121 29.9642
rfingers 7.12502
rthumb -0.335184 -0.0152333
lclavicle -1.92821e-014 1.82882e-014
lhumerus -60.9169 -18.6626 98.0088
lradius 80.7473
lwrist -7.5929
lhand -46.7295 -25.076
lfingers 7.12502
lthumb -19.4472 3.97151
rfemur 16.2729 -6.1259 17.7237
rtibia 22.1347
rfoot 15.0382 13.2572
rtoes -25.4408
lfemur -34.2554 11.7771 -29.5675
ltibia 40.8896
lfoot -7.86299 -5.60999
ltoes -12.7577
243
root 8.07897 19.0035 20.7458 -336.95 -241.469 -337.46
lowerback -1.51881 4.96123 6.14615
upperback 5.39119 6.46709 1.10841
thorax 7.05103 3.55938 -1.71777
lowerneck 1.59073 0.986931 5.30192
upperneck 5.5775 1.65459 -4.9209
head 1.58269 0.902302 -2.4772
rclavicle 8.88567e-014 -4.85035e-014
rhumerus -33.5335 14.5436 -103.712
rradius 97.017
rwrist 2.90554
rhand -26.7516 29.979
rfingers 7.12502
rthumb -0.180193 -0.000689428
lclavicle 8.88567e-014 -4.85035e-014
lhumerus -61.3038 -18.8313 97.8805
lradius 80.8443
lwrist -7.29139
lhand -47.2686 -24.7349
lfingers 7.12502
lthumb -19.9655 4.25938
rfemur 16.3987 -5.88163 17.9935
rtibia 22.7793
rfoot 16.7899 13.4066
rtoes -27.3142
lfemur -33.9395 12.7895 -30.0827
ltibia 38.8633
lfoot -7.29674 -6.03216
ltoes -14.3808
244
root 8.3803 19.0299 20.6551 -337.506 -240.778 -337.961
lowerback -1.66185 4.96251 5.84217
upperback 5.23791 6.47236 1.01016
thorax 6.94322 3.53928 -1.65201
lowerneck 2.06683 0.870733 5.59628
upperneck 5.55721 1.53648 -5.02273
head 1.49099 0.857574 -2.56766
rclavicle 1.30403e-013 -3.97569e-015
rhumerus -34.3036 15.075 -104.046
rradius 97.3282
rwrist 3.82667
rhand -26.8395 29.8442
rfingers 7.12502
rthumb -0.26508 -0.135423
lclavicle 1.30403e-013 -3.97569e-015
lhumerus -61.6229 -18.9682 97.768
lradius 81.0372
lwrist -6.97941
lhand -47.7039 -24.1037
lfingers 7.12502
lthumb -20.3839 4.84645
rfemur 16.4604 -5.81324 17.857
rtibia 23.8595
rfoot 17.9739 14.0943
rtoes -29.9259
lfemur -33.42 13.5888 -30.6837
ltibia 37.1912
lfoot -6.98258 -6.4889
ltoes -14.3145
245
root 8.67872 19.039 20.5637 -337.918 -240.013 -338.372
lowerback -1.88026 4.94148 5.604
upperback 5.08714 6.43952 0.916704
thorax 6.88659 3.50465 -1.61266
lowerneck 2.47128 0.77197 5.78932
upperneck 5.52602 1.43159 -4.9846
head 1.40563 0.817515 -2.59181
rclavicle 9.26337e-014 -1.51076e-014
rhumerus -35.0198 15.4796 -104.313
rradius 97.5907
rwrist 4.3836
rhand -26.5781 29.8621
rfingers 7.12502
rthumb -0.0126113 -0.117652
lclavicle 9.26337e-014 -1.51076e-014
lhumerus -61.7927 -19.1369 97.6678
lradius 81.3226
lwrist -6.56973
lhand -48.0052 -23.3775
lfingers 7.12502
lthumb -20.6734 5.54143
rfemur 16.2926 -5.84226 17.7629
rtibia 25.2993
rfoot 18.5194 14.9343
rtoes -32.5359
lfemur -32.8995 13.9393 -31.0181
ltibia 35.8849
lfoot -6.57522 -6.57971
ltoes -11.6557
